# xmcd CD database file generated by Grip 2.96
# 
# Track frame offsets:
#       150
#       10474
#       23014
#       34257
#       53004
#       63942
#       72114
#       85120
#       94382
#       106200
#       116039
#       132768
#       142590
#       155751
#       167060
#       178105
#       192202
# 
# Disc length: 2714 seconds
# 
# Revision: 0
# Processed by: cddbd v1.4PL0 Copyright (c) Steve Scherf et al.
# Submitted via: Grip 2.96
# 
DISCID=de0a9811
DTITLE=The Rimshots - Sentimental Fools
DYEAR=1900
DGENRE=
TTITLE0=Honky Tonk Hardwood Floor
TTITLE1=Cattin' Around
TTITLE2=Sentimental Fool
TTITLE3=Won Or Lost
TTITLE4=I Had Better Times
TTITLE5=Rock Cat Rock
TTITLE6=Planet Bop
TTITLE7=Rust Free
TTITLE8=So Tired Of Cryin'
TTITLE9=I Got A Gal
TTITLE10=I Love The Life I'm Livin'
TTITLE11=I Fell In Love
TTITLE12=Don't Come Knocking At My Door
TTITLE13=Rock All Night
TTITLE14=Big River
TTITLE15=4 Minute Warning
TTITLE16=Shut Up And Drink Your Beer
EXTD=
EXTT0=
EXTT1=
EXTT2=
EXTT3=
EXTT4=
EXTT5=
EXTT6=
EXTT7=
EXTT8=
EXTT9=
EXTT10=
EXTT11=
EXTT12=
EXTT13=
EXTT14=
EXTT15=
EXTT16=
PLAYORDER=
